<svg xmlns="http://www.w3.org/2000/svg" xmlns:xlink="http://www.w3.org/1999/xlink" width="1440" zoomAndPan="magnify" viewBox="0 0 1080 449.999984" height="600" preserveAspectRatio="xMidYMid meet" version="1.0"><defs><style>@keyframes heroCIn{from{opacity:0}to{opacity:1}}#hero-c{animation:heroCIn 1s ease-out both}#hero-wordmark{animation:heroCIn 0.9s ease-out 0.35s both}#hero-tagline{animation:heroCIn 0.8s ease-out 0.7s both}</style><g/><linearGradient x1="210" gradientTransform="matrix(0.75, 0, 0, 0.75, 0.00001956, 0)" y1="-210" x2="1229.999958" gradientUnits="userSpaceOnUse" y2="809.999958" id="b5b9f31fee"><stop stop-opacity="1" stop-color="rgb(3.919983%, 0%, 68.629456%)" offset="0"/><stop stop-opacity="1" stop-color="rgb(4.025269%, 0.106812%, 68.711853%)" offset="0.0078125"/><stop stop-opacity="1" stop-color="rgb(4.23584%, 0.320435%, 68.876648%)" offset="0.015625"/><stop stop-opacity="1" stop-color="rgb(4.447937%, 0.535583%, 69.042969%)" offset="0.0234375"/><stop stop-opacity="1" stop-color="rgb(4.658508%, 0.749207%, 69.207764%)" offset="0.03125"/><stop stop-opacity="1" stop-color="rgb(4.870605%, 0.964355%, 69.372559%)" offset="0.0390625"/><stop stop-opacity="1" stop-color="rgb(5.081177%, 1.177979%, 69.538879%)" offset="0.046875"/><stop stop-opacity="1" stop-color="rgb(5.293274%, 1.393127%, 69.703674%)" offset="0.0546875"/><stop stop-opacity="1" stop-color="rgb(5.503845%, 1.60675%, 69.869995%)" offset="0.0625"/><stop stop-opacity="1" stop-color="rgb(5.715942%, 1.821899%, 70.03479%)" offset="0.0703125"/><stop stop-opacity="1" stop-color="rgb(5.926514%, 2.035522%, 70.199585%)" offset="0.078125"/><stop stop-opacity="1" stop-color="rgb(6.138611%, 2.250671%, 70.365906%)" offset="0.0859375"/><stop stop-opacity="1" stop-color="rgb(6.350708%, 2.464294%, 70.530701%)" offset="0.09375"/><stop stop-opacity="1" stop-color="rgb(6.561279%, 2.679443%, 70.697021%)" offset="0.101562"/><stop stop-opacity="1" stop-color="rgb(6.773376%, 2.894592%, 70.861816%)" offset="0.109375"/><stop stop-opacity="1" stop-color="rgb(6.983948%, 3.108215%, 71.026611%)" offset="0.117188"/><stop stop-opacity="1" stop-color="rgb(7.196045%, 3.323364%, 71.192932%)" offset="0.125"/><stop stop-opacity="1" stop-color="rgb(7.406616%, 3.536987%, 71.357727%)" offset="0.132812"/><stop stop-opacity="1" stop-color="rgb(7.618713%, 3.752136%, 71.522522%)" offset="0.140625"/><stop stop-opacity="1" stop-color="rgb(7.829285%, 3.965759%, 71.688843%)" offset="0.148438"/><stop stop-opacity="1" stop-color="rgb(8.041382%, 4.180908%, 71.853638%)" offset="0.15625"/><stop stop-opacity="1" stop-color="rgb(8.251953%, 4.394531%, 72.019958%)" offset="0.164062"/><stop stop-opacity="1" stop-color="rgb(8.46405%, 4.60968%, 72.184753%)" offset="0.171875"/><stop stop-opacity="1" stop-color="rgb(8.676147%, 4.823303%, 72.349548%)" offset="0.179688"/><stop stop-opacity="1" stop-color="rgb(8.886719%, 5.038452%, 72.515869%)" offset="0.1875"/><stop stop-opacity="1" stop-color="rgb(9.098816%, 5.253601%, 72.680664%)" offset="0.195312"/><stop stop-opacity="1" stop-color="rgb(9.309387%, 5.467224%, 72.846985%)" offset="0.203125"/><stop stop-opacity="1" stop-color="rgb(9.521484%, 5.682373%, 73.01178%)" offset="0.210938"/><stop stop-opacity="1" stop-color="rgb(9.732056%, 5.895996%, 73.176575%)" offset="0.21875"/><stop stop-opacity="1" stop-color="rgb(9.944153%, 6.111145%, 73.342896%)" offset="0.226562"/><stop stop-opacity="1" stop-color="rgb(10.154724%, 6.324768%, 73.50769%)" offset="0.234375"/><stop stop-opacity="1" stop-color="rgb(10.366821%, 6.539917%, 73.674011%)" offset="0.242188"/><stop stop-opacity="1" stop-color="rgb(10.577393%, 6.75354%, 73.838806%)" offset="0.25"/><stop stop-opacity="1" stop-color="rgb(10.78949%, 6.968689%, 74.003601%)" offset="0.257812"/><stop stop-opacity="1" stop-color="rgb(11.001587%, 7.182312%, 74.169922%)" offset="0.265625"/><stop stop-opacity="1" stop-color="rgb(11.212158%, 7.397461%, 74.334717%)" offset="0.273438"/><stop stop-opacity="1" stop-color="rgb(11.424255%, 7.61261%, 74.501038%)" offset="0.28125"/><stop stop-opacity="1" stop-color="rgb(11.634827%, 7.826233%, 74.665833%)" offset="0.289062"/><stop stop-opacity="1" stop-color="rgb(11.846924%, 8.041382%, 74.830627%)" offset="0.294118"/><stop stop-opacity="1" stop-color="rgb(11.952209%, 8.148193%, 74.914551%)" offset="0.296875"/><stop stop-opacity="1" stop-color="rgb(12.057495%, 8.255005%, 74.996948%)" offset="0.304688"/><stop stop-opacity="1" stop-color="rgb(12.269592%, 8.470154%, 75.161743%)" offset="0.3125"/><stop stop-opacity="1" stop-color="rgb(12.480164%, 8.683777%, 75.326538%)" offset="0.320312"/><stop stop-opacity="1" stop-color="rgb(12.692261%, 8.898926%, 75.492859%)" offset="0.328125"/><stop stop-opacity="1" stop-color="rgb(12.902832%, 9.112549%, 75.657654%)" offset="0.335938"/><stop stop-opacity="1" stop-color="rgb(13.114929%, 9.327698%, 75.823975%)" offset="0.34375"/><stop stop-opacity="1" stop-color="rgb(13.327026%, 9.541321%, 75.98877%)" offset="0.351562"/><stop stop-opacity="1" stop-color="rgb(13.537598%, 9.75647%, 76.153564%)" offset="0.359375"/><stop stop-opacity="1" stop-color="rgb(13.749695%, 9.971619%, 76.319885%)" offset="0.367188"/><stop stop-opacity="1" stop-color="rgb(13.960266%, 10.185242%, 76.48468%)" offset="0.375"/><stop stop-opacity="1" stop-color="rgb(14.172363%, 10.400391%, 76.651001%)" offset="0.382812"/><stop stop-opacity="1" stop-color="rgb(14.382935%, 10.614014%, 76.815796%)" offset="0.390625"/><stop stop-opacity="1" stop-color="rgb(14.595032%, 10.829163%, 76.980591%)" offset="0.398438"/><stop stop-opacity="1" stop-color="rgb(14.805603%, 11.042786%, 77.146912%)" offset="0.40625"/><stop stop-opacity="1" stop-color="rgb(15.0177%, 11.257935%, 77.311707%)" offset="0.414062"/><stop stop-opacity="1" stop-color="rgb(15.229797%, 11.471558%, 77.478027%)" offset="0.421875"/><stop stop-opacity="1" stop-color="rgb(15.440369%, 11.686707%, 77.642822%)" offset="0.429688"/><stop stop-opacity="1" stop-color="rgb(15.652466%, 11.90033%, 77.807617%)" offset="0.4375"/><stop stop-opacity="1" stop-color="rgb(15.863037%, 12.115479%, 77.973938%)" offset="0.445312"/><stop stop-opacity="1" stop-color="rgb(16.075134%, 12.330627%, 78.138733%)" offset="0.453125"/><stop stop-opacity="1" stop-color="rgb(16.285706%, 12.54425%, 78.303528%)" offset="0.460938"/><stop stop-opacity="1" stop-color="rgb(16.497803%, 12.759399%, 78.469849%)" offset="0.46875"/><stop stop-opacity="1" stop-color="rgb(16.708374%, 12.973022%, 78.634644%)" offset="0.476562"/><stop stop-opacity="1" stop-color="rgb(16.920471%, 13.188171%, 78.800964%)" offset="0.484375"/><stop stop-opacity="1" stop-color="rgb(17.131042%, 13.401794%, 78.965759%)" offset="0.492188"/><stop stop-opacity="1" stop-color="rgb(17.34314%, 13.616943%, 79.130554%)" offset="0.5"/><stop stop-opacity="1" stop-color="rgb(17.555237%, 13.830566%, 79.296875%)" offset="0.507812"/><stop stop-opacity="1" stop-color="rgb(17.765808%, 14.045715%, 79.46167%)" offset="0.515625"/><stop stop-opacity="1" stop-color="rgb(17.977905%, 14.259338%, 79.627991%)" offset="0.523438"/><stop stop-opacity="1" stop-color="rgb(18.188477%, 14.474487%, 79.792786%)" offset="0.53125"/><stop stop-opacity="1" stop-color="rgb(18.400574%, 14.68811%, 79.957581%)" offset="0.539062"/><stop stop-opacity="1" stop-color="rgb(18.611145%, 14.903259%, 80.123901%)" offset="0.546875"/><stop stop-opacity="1" stop-color="rgb(18.823242%, 15.118408%, 80.288696%)" offset="0.554688"/><stop stop-opacity="1" stop-color="rgb(19.033813%, 15.332031%, 80.455017%)" offset="0.5625"/><stop stop-opacity="1" stop-color="rgb(19.245911%, 15.54718%, 80.619812%)" offset="0.570312"/><stop stop-opacity="1" stop-color="rgb(19.456482%, 15.760803%, 80.784607%)" offset="0.578125"/><stop stop-opacity="1" stop-color="rgb(19.668579%, 15.975952%, 80.950928%)" offset="0.585938"/><stop stop-opacity="1" stop-color="rgb(19.880676%, 16.189575%, 81.115723%)" offset="0.59375"/><stop stop-opacity="1" stop-color="rgb(20.091248%, 16.404724%, 81.282043%)" offset="0.601562"/><stop stop-opacity="1" stop-color="rgb(20.303345%, 16.618347%, 81.446838%)" offset="0.609375"/><stop stop-opacity="1" stop-color="rgb(20.513916%, 16.833496%, 81.611633%)" offset="0.617188"/><stop stop-opacity="1" stop-color="rgb(20.726013%, 17.047119%, 81.777954%)" offset="0.625"/><stop stop-opacity="1" stop-color="rgb(20.936584%, 17.262268%, 81.942749%)" offset="0.632812"/><stop stop-opacity="1" stop-color="rgb(21.148682%, 17.477417%, 82.107544%)" offset="0.640625"/><stop stop-opacity="1" stop-color="rgb(21.359253%, 17.69104%, 82.273865%)" offset="0.648438"/><stop stop-opacity="1" stop-color="rgb(21.57135%, 17.906189%, 82.43866%)" offset="0.65625"/><stop stop-opacity="1" stop-color="rgb(21.781921%, 18.119812%, 82.60498%)" offset="0.664062"/><stop stop-opacity="1" stop-color="rgb(21.994019%, 18.334961%, 82.769775%)" offset="0.671875"/><stop stop-opacity="1" stop-color="rgb(22.206116%, 18.548584%, 82.93457%)" offset="0.679688"/><stop stop-opacity="1" stop-color="rgb(22.416687%, 18.763733%, 83.100891%)" offset="0.6875"/><stop stop-opacity="1" stop-color="rgb(22.628784%, 18.977356%, 83.265686%)" offset="0.695312"/><stop stop-opacity="1" stop-color="rgb(22.839355%, 19.192505%, 83.432007%)" offset="0.703125"/><stop stop-opacity="1" stop-color="rgb(23.051453%, 19.406128%, 83.596802%)" offset="0.705882"/><stop stop-opacity="1" stop-color="rgb(23.156738%, 19.514465%, 83.679199%)" offset="0.710938"/><stop stop-opacity="1" stop-color="rgb(23.262024%, 19.621277%, 83.761597%)" offset="0.71875"/><stop stop-opacity="1" stop-color="rgb(23.474121%, 19.836426%, 83.927917%)" offset="0.726562"/><stop stop-opacity="1" stop-color="rgb(23.684692%, 20.050049%, 84.092712%)" offset="0.734375"/><stop stop-opacity="1" stop-color="rgb(23.89679%, 20.265198%, 84.259033%)" offset="0.742188"/><stop stop-opacity="1" stop-color="rgb(24.107361%, 20.478821%, 84.423828%)" offset="0.75"/><stop stop-opacity="1" stop-color="rgb(24.319458%, 20.69397%, 84.588623%)" offset="0.757812"/><stop stop-opacity="1" stop-color="rgb(24.531555%, 20.907593%, 84.754944%)" offset="0.765625"/><stop stop-opacity="1" stop-color="rgb(24.742126%, 21.122742%, 84.919739%)" offset="0.773438"/><stop stop-opacity="1" stop-color="rgb(24.954224%, 21.336365%, 85.08606%)" offset="0.78125"/><stop stop-opacity="1" stop-color="rgb(25.164795%, 21.551514%, 85.250854%)" offset="0.789062"/><stop stop-opacity="1" stop-color="rgb(25.376892%, 21.765137%, 85.415649%)" offset="0.796875"/><stop stop-opacity="1" stop-color="rgb(25.587463%, 21.980286%, 85.58197%)" offset="0.804688"/><stop stop-opacity="1" stop-color="rgb(25.799561%, 22.195435%, 85.746765%)" offset="0.8125"/><stop stop-opacity="1" stop-color="rgb(26.010132%, 22.409058%, 85.91156%)" offset="0.820312"/><stop stop-opacity="1" stop-color="rgb(26.222229%, 22.624207%, 86.077881%)" offset="0.828125"/><stop stop-opacity="1" stop-color="rgb(26.434326%, 22.83783%, 86.242676%)" offset="0.835938"/><stop stop-opacity="1" stop-color="rgb(26.644897%, 23.052979%, 86.408997%)" offset="0.84375"/><stop stop-opacity="1" stop-color="rgb(26.856995%, 23.266602%, 86.573792%)" offset="0.851562"/><stop stop-opacity="1" stop-color="rgb(27.067566%, 23.48175%, 86.738586%)" offset="0.859375"/><stop stop-opacity="1" stop-color="rgb(27.279663%, 23.695374%, 86.904907%)" offset="0.867188"/><stop stop-opacity="1" stop-color="rgb(27.490234%, 23.910522%, 87.069702%)" offset="0.875"/><stop stop-opacity="1" stop-color="rgb(27.702332%, 24.124146%, 87.236023%)" offset="0.882812"/><stop stop-opacity="1" stop-color="rgb(27.912903%, 24.339294%, 87.400818%)" offset="0.890625"/><stop stop-opacity="1" stop-color="rgb(28.125%, 24.554443%, 87.565613%)" offset="0.898438"/><stop stop-opacity="1" stop-color="rgb(28.335571%, 24.768066%, 87.731934%)" offset="0.90625"/><stop stop-opacity="1" stop-color="rgb(28.547668%, 24.983215%, 87.896729%)" offset="0.914062"/><stop stop-opacity="1" stop-color="rgb(28.759766%, 25.196838%, 88.063049%)" offset="0.921875"/><stop stop-opacity="1" stop-color="rgb(28.970337%, 25.411987%, 88.227844%)" offset="0.929688"/><stop stop-opacity="1" stop-color="rgb(29.182434%, 25.62561%, 88.392639%)" offset="0.9375"/><stop stop-opacity="1" stop-color="rgb(29.393005%, 25.840759%, 88.55896%)" offset="0.945312"/><stop stop-opacity="1" stop-color="rgb(29.605103%, 26.054382%, 88.723755%)" offset="0.953125"/><stop stop-opacity="1" stop-color="rgb(29.815674%, 26.269531%, 88.88855%)" offset="0.960938"/><stop stop-opacity="1" stop-color="rgb(30.027771%, 26.483154%, 89.054871%)" offset="0.96875"/><stop stop-opacity="1" stop-color="rgb(30.238342%, 26.698303%, 89.219666%)" offset="0.976562"/><stop stop-opacity="1" stop-color="rgb(30.450439%, 26.911926%, 89.385986%)" offset="0.984375"/><stop stop-opacity="1" stop-color="rgb(30.661011%, 27.127075%, 89.550781%)" offset="0.992188"/><stop stop-opacity="1" stop-color="rgb(30.873108%, 27.342224%, 89.715576%)" offset="1"/></linearGradient><clipPath id="b0ad819ad0"><rect x="0" width="322" y="0" height="450"/></clipPath><clipPath id="3eebbfb1a5"><rect x="0" width="582" y="0" height="144"/></clipPath><clipPath id="06842a7d28"><path d="M 0.28125 10 L 23 10 L 23 35 L 0.28125 35 Z M 0.28125 10 " clip-rule="nonzero"/></clipPath><clipPath id="cc64247929"><rect x="0" width="184" y="0" height="44"/></clipPath></defs><rect x="-108" width="1296" fill="#ffffff" y="-44.999998" height="539.99998" fill-opacity="1"/><rect x="-108" fill="url(#b5b9f31fee)" width="1296" y="-44.999998" height="539.99998"/><g id="hero-c" transform="matrix(1, 0, 0, 1, 91, 0)"><g clip-path="url(#b0ad819ad0)"><g fill="#ffffff" fill-opacity="1"><g transform="translate(1.229874, 358.232203)"><g><path d="M 180.171875 6.875 C 148.347656 6.875 119.679688 0.210938 94.171875 -13.109375 C 68.660156 -26.441406 48.664062 -45.078125 34.1875 -69.015625 C 19.707031 -92.953125 12.46875 -120.113281 12.46875 -150.5 C 12.46875 -180.882812 19.707031 -208.046875 34.1875 -231.984375 C 48.664062 -255.921875 68.660156 -274.550781 94.171875 -287.875 C 119.679688 -301.207031 148.347656 -307.875 180.171875 -307.875 C 209.410156 -307.875 235.492188 -302.710938 258.421875 -292.390625 C 281.359375 -282.078125 300.28125 -267.175781 315.1875 -247.6875 L 251.125 -190.484375 C 232.488281 -213.992188 210.554688 -225.75 185.328125 -225.75 C 164.117188 -225.75 147.0625 -218.941406 134.15625 -205.328125 C 121.257812 -191.710938 114.8125 -173.4375 114.8125 -150.5 C 114.8125 -127.5625 121.257812 -109.285156 134.15625 -95.671875 C 147.0625 -82.054688 164.117188 -75.25 185.328125 -75.25 C 210.554688 -75.25 232.488281 -87.003906 251.125 -110.515625 L 315.1875 -53.3125 C 300.28125 -33.820312 281.359375 -18.914062 258.421875 -8.59375 C 235.492188 1.71875 209.410156 6.875 180.171875 6.875 Z M 180.171875 6.875 "/></g></g></g></g></g><g id="hero-wordmark" transform="matrix(1, 0, 0, 1, 359, 126)"><g clip-path="url(#3eebbfb1a5)"><g fill="#ffffff" fill-opacity="1"><g transform="translate(0.636388, 113.584561)"><g><path d="M 38.171875 0.9375 C 31.578125 0.9375 25.660156 -0.4375 20.421875 -3.1875 C 15.179688 -5.945312 11.085938 -9.769531 8.140625 -14.65625 C 5.191406 -19.550781 3.71875 -25.101562 3.71875 -31.3125 C 3.71875 -37.507812 5.191406 -43.050781 8.140625 -47.9375 C 11.085938 -52.832031 15.179688 -56.65625 20.421875 -59.40625 C 25.660156 -62.164062 31.578125 -63.546875 38.171875 -63.546875 C 44.765625 -63.546875 50.660156 -62.164062 55.859375 -59.40625 C 61.054688 -56.65625 65.128906 -52.832031 68.078125 -47.9375 C 71.023438 -43.050781 72.5 -37.507812 72.5 -31.3125 C 72.5 -25.101562 71.023438 -19.550781 68.078125 -14.65625 C 65.128906 -9.769531 61.054688 -5.945312 55.859375 -3.1875 C 50.660156 -0.4375 44.765625 0.9375 38.171875 0.9375 Z M 38.171875 -13.96875 C 42.828125 -13.96875 46.644531 -15.535156 49.625 -18.671875 C 52.613281 -21.816406 54.109375 -26.03125 54.109375 -31.3125 C 54.109375 -36.582031 52.613281 -40.785156 49.625 -43.921875 C 46.644531 -47.066406 42.828125 -48.640625 38.171875 -48.640625 C 33.515625 -48.640625 29.671875 -47.066406 26.640625 -43.921875 C 23.617188 -40.785156 22.109375 -36.582031 22.109375 -31.3125 C 22.109375 -26.03125 23.617188 -21.816406 26.640625 -18.671875 C 29.671875 -15.535156 33.515625 -13.96875 38.171875 -13.96875 Z M 38.171875 -13.96875 "/></g></g></g><g fill="#ffffff" fill-opacity="1"><g transform="translate(82.097547, 113.584561)"><g><path d="M 46.4375 -63.546875 C 54.195312 -63.546875 60.460938 -61.21875 65.234375 -56.5625 C 70.003906 -51.90625 72.390625 -45 72.390625 -35.84375 L 72.390625 0 L 54.234375 0 L 54.234375 -33.046875 C 54.234375 -38.015625 53.144531 -41.71875 50.96875 -44.15625 C 48.800781 -46.601562 45.660156 -47.828125 41.546875 -47.828125 C 36.972656 -47.828125 33.328125 -46.410156 30.609375 -43.578125 C 27.890625 -40.742188 26.53125 -36.535156 26.53125 -30.953125 L 26.53125 0 L 8.375 0 L 8.375 -62.609375 L 25.71875 -62.609375 L 25.71875 -55.28125 C 28.125 -57.914062 31.109375 -59.953125 34.671875 -61.390625 C 38.242188 -62.828125 42.164062 -63.546875 46.4375 -63.546875 Z M 46.4375 -63.546875 "/></g></g></g><g fill="#ffffff" fill-opacity="1"><g transform="translate(168.446379, 113.584561)"><g><path d="M 38.640625 0.9375 C 31.960938 0.9375 25.96875 -0.4375 20.65625 -3.1875 C 15.34375 -5.945312 11.191406 -9.769531 8.203125 -14.65625 C 5.210938 -19.550781 3.71875 -25.101562 3.71875 -31.3125 C 3.71875 -37.507812 5.210938 -43.050781 8.203125 -47.9375 C 11.191406 -52.832031 15.34375 -56.65625 20.65625 -59.40625 C 25.96875 -62.164062 31.960938 -63.546875 38.640625 -63.546875 C 45.234375 -63.546875 50.992188 -62.164062 55.921875 -59.40625 C 60.847656 -56.65625 64.4375 -52.71875 66.6875 -47.59375 L 52.59375 -40.03125 C 49.34375 -45.769531 44.648438 -48.640625 38.515625 -48.640625 C 33.785156 -48.640625 29.867188 -47.085938 26.765625 -43.984375 C 23.660156 -40.878906 22.109375 -36.65625 22.109375 -31.3125 C 22.109375 -25.957031 23.660156 -21.726562 26.765625 -18.625 C 29.867188 -15.519531 33.785156 -13.96875 38.515625 -13.96875 C 44.722656 -13.96875 49.414062 -16.835938 52.59375 -22.578125 L 66.6875 -14.890625 C 64.4375 -9.929688 60.847656 -6.050781 55.921875 -3.25 C 50.992188 -0.457031 45.234375 0.9375 38.640625 0.9375 Z M 38.640625 0.9375 "/></g></g></g><g fill="#ffffff" fill-opacity="1"><g transform="translate(241.645068, 113.584561)"><g><path d="M 38.171875 0.9375 C 31.578125 0.9375 25.660156 -0.4375 20.421875 -3.1875 C 15.179688 -5.945312 11.085938 -9.769531 8.140625 -14.65625 C 5.191406 -19.550781 3.71875 -25.101562 3.71875 -31.3125 C 3.71875 -37.507812 5.191406 -43.050781 8.140625 -47.9375 C 11.085938 -52.832031 15.179688 -56.65625 20.421875 -59.40625 C 25.660156 -62.164062 31.578125 -63.546875 38.171875 -63.546875 C 44.765625 -63.546875 50.660156 -62.164062 55.859375 -59.40625 C 61.054688 -56.65625 65.128906 -52.832031 68.078125 -47.9375 C 71.023438 -43.050781 72.5 -37.507812 72.5 -31.3125 C 72.5 -25.101562 71.023438 -19.550781 68.078125 -14.65625 C 65.128906 -9.769531 61.054688 -5.945312 55.859375 -3.1875 C 50.660156 -0.4375 44.765625 0.9375 38.171875 0.9375 Z M 38.171875 -13.96875 C 42.828125 -13.96875 46.644531 -15.535156 49.625 -18.671875 C 52.613281 -21.816406 54.109375 -26.03125 54.109375 -31.3125 C 54.109375 -36.582031 52.613281 -40.785156 49.625 -43.921875 C 46.644531 -47.066406 42.828125 -48.640625 38.171875 -48.640625 C 33.515625 -48.640625 29.671875 -47.066406 26.640625 -43.921875 C 23.617188 -40.785156 22.109375 -36.582031 22.109375 -31.3125 C 22.109375 -26.03125 23.617188 -21.816406 26.640625 -18.671875 C 29.671875 -15.535156 33.515625 -13.96875 38.171875 -13.96875 Z M 38.171875 -13.96875 "/></g></g></g><g fill="#ffffff" fill-opacity="1"><g transform="translate(323.106227, 113.584561)"><g><path d="M 25.71875 -54.34375 C 27.894531 -57.375 30.820312 -59.664062 34.5 -61.21875 C 38.1875 -62.769531 42.4375 -63.546875 47.25 -63.546875 L 47.25 -46.78125 C 45.226562 -46.9375 43.867188 -47.015625 43.171875 -47.015625 C 37.972656 -47.015625 33.898438 -45.554688 30.953125 -42.640625 C 28.003906 -39.734375 26.53125 -35.375 26.53125 -29.5625 L 26.53125 0 L 8.375 0 L 8.375 -62.609375 L 25.71875 -62.609375 Z M 25.71875 -54.34375 "/></g></g></g><g fill="#ffffff" fill-opacity="1"><g transform="translate(377.452529, 113.584561)"><g><path d="M 72.15625 -86.34375 L 72.15625 0 L 54.8125 0 L 54.8125 -7.21875 C 50.3125 -1.78125 43.796875 0.9375 35.265625 0.9375 C 29.367188 0.9375 24.035156 -0.378906 19.265625 -3.015625 C 14.492188 -5.660156 10.75 -9.425781 8.03125 -14.3125 C 5.3125 -19.195312 3.953125 -24.863281 3.953125 -31.3125 C 3.953125 -37.75 5.3125 -43.410156 8.03125 -48.296875 C 10.75 -53.179688 14.492188 -56.941406 19.265625 -59.578125 C 24.035156 -62.222656 29.367188 -63.546875 35.265625 -63.546875 C 43.253906 -63.546875 49.5 -61.019531 54 -55.96875 L 54 -86.34375 Z M 38.40625 -13.96875 C 42.976562 -13.96875 46.773438 -15.535156 49.796875 -18.671875 C 52.828125 -21.816406 54.34375 -26.03125 54.34375 -31.3125 C 54.34375 -36.582031 52.828125 -40.785156 49.796875 -43.921875 C 46.773438 -47.066406 42.976562 -48.640625 38.40625 -48.640625 C 33.75 -48.640625 29.90625 -47.066406 26.875 -43.921875 C 23.851562 -40.785156 22.34375 -36.582031 22.34375 -31.3125 C 22.34375 -26.03125 23.851562 -21.816406 26.875 -18.671875 C 29.90625 -15.535156 33.75 -13.96875 38.40625 -13.96875 Z M 38.40625 -13.96875 "/></g></g></g><g fill="#ffffff" fill-opacity="1"><g transform="translate(463.219471, 113.584561)"><g><path d="M 8.375 -62.609375 L 26.53125 -62.609375 L 26.53125 0 L 8.375 0 Z M 17.46875 -71.34375 C 14.125 -71.34375 11.40625 -72.3125 9.3125 -74.25 C 7.21875 -76.1875 6.171875 -78.59375 6.171875 -81.46875 C 6.171875 -84.332031 7.21875 -86.734375 9.3125 -88.671875 C 11.40625 -90.617188 14.125 -91.59375 17.46875 -91.59375 C 20.800781 -91.59375 23.515625 -90.660156 25.609375 -88.796875 C 27.703125 -86.929688 28.75 -84.601562 28.75 -81.8125 C 28.75 -78.78125 27.703125 -76.273438 25.609375 -74.296875 C 23.515625 -72.328125 20.800781 -71.34375 17.46875 -71.34375 Z M 17.46875 -71.34375 "/></g></g></g><g fill="#ffffff" fill-opacity="1"><g transform="translate(503.484712, 113.584561)"><g><path d="M 33.625 -63.546875 C 43.320312 -63.546875 50.769531 -61.234375 55.96875 -56.609375 C 61.175781 -51.992188 63.78125 -45.035156 63.78125 -35.734375 L 63.78125 0 L 46.78125 0 L 46.78125 -7.796875 C 43.363281 -1.972656 37.003906 0.9375 27.703125 0.9375 C 22.890625 0.9375 18.71875 0.125 15.1875 -1.5 C 11.65625 -3.132812 8.957031 -5.382812 7.09375 -8.25 C 5.238281 -11.125 4.3125 -14.382812 4.3125 -18.03125 C 4.3125 -23.851562 6.5 -28.429688 10.875 -31.765625 C 15.257812 -35.109375 22.03125 -36.78125 31.1875 -36.78125 L 45.625 -36.78125 C 45.625 -40.726562 44.421875 -43.769531 42.015625 -45.90625 C 39.609375 -48.039062 36 -49.109375 31.1875 -49.109375 C 27.851562 -49.109375 24.578125 -48.582031 21.359375 -47.53125 C 18.140625 -46.488281 15.40625 -45.078125 13.15625 -43.296875 L 6.640625 -55.96875 C 10.046875 -58.375 14.132812 -60.238281 18.90625 -61.5625 C 23.675781 -62.882812 28.582031 -63.546875 33.625 -63.546875 Z M 32.234375 -11.28125 C 35.335938 -11.28125 38.09375 -12 40.5 -13.4375 C 42.90625 -14.875 44.613281 -16.988281 45.625 -19.78125 L 45.625 -26.1875 L 33.171875 -26.1875 C 25.722656 -26.1875 22 -23.742188 22 -18.859375 C 22 -16.523438 22.910156 -14.675781 24.734375 -13.3125 C 26.554688 -11.957031 29.054688 -11.28125 32.234375 -11.28125 Z M 32.234375 -11.28125 "/></g></g></g></g></g><g id="hero-tagline" transform="matrix(1, 0, 0, 1, 449, 355)"><g clip-path="url(#cc64247929)"><g clip-path="url(#06842a7d28)"><g fill="#ffffff" fill-opacity="1"><g transform="translate(0.600185, 34.788491)"><g><path d="M 8.046875 -20.046875 L 0.140625 -20.046875 L 0.140625 -24.703125 L 21.65625 -24.703125 L 21.65625 -20.046875 L 13.765625 -20.046875 L 13.765625 0 L 8.046875 0 Z M 8.046875 -20.046875 "/></g></g></g></g><g fill="#ffffff" fill-opacity="1"><g transform="translate(23.03625, 34.788491)"><g><path d="M 10.203125 -19.265625 C 13.140625 -19.265625 15.394531 -18.5625 16.96875 -17.15625 C 18.539062 -15.757812 19.328125 -13.648438 19.328125 -10.828125 L 19.328125 0 L 14.1875 0 L 14.1875 -2.359375 C 13.144531 -0.597656 11.210938 0.28125 8.390625 0.28125 C 6.929688 0.28125 5.664062 0.0351562 4.59375 -0.453125 C 3.53125 -0.953125 2.71875 -1.632812 2.15625 -2.5 C 1.59375 -3.375 1.3125 -4.363281 1.3125 -5.46875 C 1.3125 -7.226562 1.972656 -8.613281 3.296875 -9.625 C 4.628906 -10.644531 6.679688 -11.15625 9.453125 -11.15625 L 13.828125 -11.15625 C 13.828125 -12.351562 13.460938 -13.273438 12.734375 -13.921875 C 12.003906 -14.566406 10.910156 -14.890625 9.453125 -14.890625 C 8.441406 -14.890625 7.445312 -14.726562 6.46875 -14.40625 C 5.5 -14.09375 4.671875 -13.664062 3.984375 -13.125 L 2.015625 -16.96875 C 3.046875 -17.695312 4.285156 -18.257812 5.734375 -18.65625 C 7.179688 -19.0625 8.671875 -19.265625 10.203125 -19.265625 Z M 9.765625 -3.421875 C 10.710938 -3.421875 11.550781 -3.640625 12.28125 -4.078125 C 13.007812 -4.515625 13.523438 -5.15625 13.828125 -6 L 13.828125 -7.9375 L 10.0625 -7.9375 C 7.800781 -7.9375 6.671875 -7.195312 6.671875 -5.71875 C 6.671875 -5.007812 6.945312 -4.445312 7.5 -4.03125 C 8.050781 -3.625 8.804688 -3.421875 9.765625 -3.421875 Z M 9.765625 -3.421875 "/></g></g></g><g fill="#ffffff" fill-opacity="1"><g transform="translate(46.389596, 34.788491)"><g><path d="M 2.546875 -26.171875 L 8.046875 -26.171875 L 8.046875 0 L 2.546875 0 Z M 2.546875 -26.171875 "/></g></g></g><g fill="#ffffff" fill-opacity="1"><g transform="translate(58.595504, 34.788491)"><g><path d="M 10.6875 -7.4375 L 8.046875 -4.828125 L 8.046875 0 L 2.546875 0 L 2.546875 -26.171875 L 8.046875 -26.171875 L 8.046875 -11.359375 L 16.09375 -18.984375 L 22.65625 -18.984375 L 14.75 -10.9375 L 23.359375 0 L 16.6875 0 Z M 10.6875 -7.4375 "/></g></g></g><g fill="#ffffff" fill-opacity="1"><g transform="translate(83.465743, 34.788491)"><g/></g></g><g fill="#ffffff" fill-opacity="1"><g transform="translate(95.036673, 34.788491)"><g><path d="M 8.640625 -20.109375 L 8.640625 -13.578125 L 20.078125 -13.578125 L 20.078125 -9 L 8.640625 -9 L 8.640625 0 L 2.921875 0 L 2.921875 -24.703125 L 21.59375 -24.703125 L 21.59375 -20.109375 Z M 8.640625 -20.109375 "/></g></g></g><g fill="#ffffff" fill-opacity="1"><g transform="translate(118.813312, 34.788491)"><g><path d="M 7.796875 -16.46875 C 8.453125 -17.394531 9.335938 -18.09375 10.453125 -18.5625 C 11.578125 -19.03125 12.867188 -19.265625 14.328125 -19.265625 L 14.328125 -14.1875 C 13.710938 -14.226562 13.300781 -14.25 13.09375 -14.25 C 11.507812 -14.25 10.269531 -13.804688 9.375 -12.921875 C 8.488281 -12.046875 8.046875 -10.726562 8.046875 -8.96875 L 8.046875 0 L 2.546875 0 L 2.546875 -18.984375 L 7.796875 -18.984375 Z M 7.796875 -16.46875 "/></g></g></g><g fill="#ffffff" fill-opacity="1"><g transform="translate(135.287677, 34.788491)"><g><path d="M 21.140625 -9.421875 C 21.140625 -9.347656 21.101562 -8.851562 21.03125 -7.9375 L 6.671875 -7.9375 C 6.929688 -6.757812 7.539062 -5.828125 8.5 -5.140625 C 9.46875 -4.460938 10.664062 -4.125 12.09375 -4.125 C 13.082031 -4.125 13.957031 -4.269531 14.71875 -4.5625 C 15.488281 -4.863281 16.203125 -5.332031 16.859375 -5.96875 L 19.796875 -2.78125 C 18.003906 -0.738281 15.390625 0.28125 11.953125 0.28125 C 9.816406 0.28125 7.925781 -0.132812 6.28125 -0.96875 C 4.632812 -1.800781 3.363281 -2.957031 2.46875 -4.4375 C 1.570312 -5.925781 1.125 -7.609375 1.125 -9.484375 C 1.125 -11.347656 1.566406 -13.023438 2.453125 -14.515625 C 3.335938 -16.015625 4.546875 -17.179688 6.078125 -18.015625 C 7.617188 -18.847656 9.34375 -19.265625 11.25 -19.265625 C 13.113281 -19.265625 14.796875 -18.863281 16.296875 -18.0625 C 17.804688 -17.257812 18.988281 -16.113281 19.84375 -14.625 C 20.707031 -13.132812 21.140625 -11.398438 21.140625 -9.421875 Z M 11.296875 -15.09375 C 10.046875 -15.09375 8.992188 -14.738281 8.140625 -14.03125 C 7.296875 -13.332031 6.78125 -12.375 6.59375 -11.15625 L 15.953125 -11.15625 C 15.765625 -12.351562 15.242188 -13.304688 14.390625 -14.015625 C 13.546875 -14.734375 12.515625 -15.09375 11.296875 -15.09375 Z M 11.296875 -15.09375 "/></g></g></g><g fill="#ffffff" fill-opacity="1"><g transform="translate(159.134881, 34.788491)"><g><path d="M 21.140625 -9.421875 C 21.140625 -9.347656 21.101562 -8.851562 21.03125 -7.9375 L 6.671875 -7.9375 C 6.929688 -6.757812 7.539062 -5.828125 8.5 -5.140625 C 9.46875 -4.460938 10.664062 -4.125 12.09375 -4.125 C 13.082031 -4.125 13.957031 -4.269531 14.71875 -4.5625 C 15.488281 -4.863281 16.203125 -5.332031 16.859375 -5.96875 L 19.796875 -2.78125 C 18.003906 -0.738281 15.390625 0.28125 11.953125 0.28125 C 9.816406 0.28125 7.925781 -0.132812 6.28125 -0.96875 C 4.632812 -1.800781 3.363281 -2.957031 2.46875 -4.4375 C 1.570312 -5.925781 1.125 -7.609375 1.125 -9.484375 C 1.125 -11.347656 1.566406 -13.023438 2.453125 -14.515625 C 3.335938 -16.015625 4.546875 -17.179688 6.078125 -18.015625 C 7.617188 -18.847656 9.34375 -19.265625 11.25 -19.265625 C 13.113281 -19.265625 14.796875 -18.863281 16.296875 -18.0625 C 17.804688 -17.257812 18.988281 -16.113281 19.84375 -14.625 C 20.707031 -13.132812 21.140625 -11.398438 21.140625 -9.421875 Z M 11.296875 -15.09375 C 10.046875 -15.09375 8.992188 -14.738281 8.140625 -14.03125 C 7.296875 -13.332031 6.78125 -12.375 6.59375 -11.15625 L 15.953125 -11.15625 C 15.765625 -12.351562 15.242188 -13.304688 14.390625 -14.015625 C 13.546875 -14.734375 12.515625 -15.09375 11.296875 -15.09375 Z M 11.296875 -15.09375 "/></g></g></g></g></g></svg>