<svg xmlns="http://www.w3.org/2000/svg" xmlns:xlink="http://www.w3.org/1999/xlink" width="2000" zoomAndPan="magnify" viewBox="0 0 1500 1499.999933" height="2000" preserveAspectRatio="xMidYMid meet" version="1.0"><defs><g/><clipPath id="68059ddbd0"><rect x="0" width="1062" y="0" height="1500"/></clipPath><clipPath id="862135f1ab"><rect x="0" width="889" y="0" height="219"/></clipPath></defs><g transform="matrix(1, 0, 0, 1, 0, 0.000000000000112861)"><g clip-path="url(#68059ddbd0)"><g fill="#4f46e5" fill-opacity="1"><g transform="translate(-9.008738, 1233.95552)"><g><path d="M 602.609375 23.015625 C 496.191406 23.015625 400.3125 0.722656 314.96875 -43.859375 C 229.632812 -88.453125 162.753906 -150.78125 114.328125 -230.84375 C 65.910156 -310.90625 41.703125 -401.753906 41.703125 -503.390625 C 41.703125 -605.015625 65.910156 -695.859375 114.328125 -775.921875 C 162.753906 -855.984375 229.632812 -918.304688 314.96875 -962.890625 C 400.3125 -1007.472656 496.191406 -1029.765625 602.609375 -1029.765625 C 700.410156 -1029.765625 787.664062 -1012.503906 864.375 -977.984375 C 941.082031 -943.472656 1004.363281 -893.617188 1054.21875 -828.421875 L 839.921875 -637.125 C 777.597656 -715.75 704.25 -755.0625 619.875 -755.0625 C 548.914062 -755.0625 491.863281 -732.289062 448.71875 -686.75 C 405.582031 -641.207031 384.015625 -580.085938 384.015625 -503.390625 C 384.015625 -426.679688 405.582031 -365.550781 448.71875 -320 C 491.863281 -274.457031 548.914062 -251.6875 619.875 -251.6875 C 704.25 -251.6875 777.597656 -291 839.921875 -369.625 L 1054.21875 -178.34375 C 1004.363281 -113.144531 941.082031 -63.285156 864.375 -28.765625 C 787.664062 5.753906 700.410156 23.015625 602.609375 23.015625 Z M 602.609375 23.015625 "/></g></g></g></g></g><g transform="matrix(1, 0, 0, 1, 587, 610)"><g clip-path="url(#862135f1ab)"><g fill="#4f46e5" fill-opacity="1"><g transform="translate(0.532756, 173.150096)"><g><path d="M 58.390625 1.421875 C 48.304688 1.421875 39.257812 -0.679688 31.25 -4.890625 C 23.238281 -9.109375 16.976562 -14.953125 12.46875 -22.421875 C 7.957031 -29.898438 5.703125 -38.390625 5.703125 -47.890625 C 5.703125 -57.390625 7.957031 -65.875 12.46875 -73.34375 C 16.976562 -80.820312 23.238281 -86.664062 31.25 -90.875 C 39.257812 -95.09375 48.304688 -97.203125 58.390625 -97.203125 C 68.484375 -97.203125 77.503906 -95.09375 85.453125 -90.875 C 93.410156 -86.664062 99.640625 -80.820312 104.140625 -73.34375 C 108.648438 -65.875 110.90625 -57.390625 110.90625 -47.890625 C 110.90625 -38.390625 108.648438 -29.898438 104.140625 -22.421875 C 99.640625 -14.953125 93.410156 -9.109375 85.453125 -4.890625 C 77.503906 -0.679688 68.484375 1.421875 58.390625 1.421875 Z M 58.390625 -21.359375 C 65.515625 -21.359375 71.359375 -23.757812 75.921875 -28.5625 C 80.492188 -33.375 82.78125 -39.816406 82.78125 -47.890625 C 82.78125 -55.960938 80.492188 -62.398438 75.921875 -67.203125 C 71.359375 -72.015625 65.515625 -74.421875 58.390625 -74.421875 C 51.273438 -74.421875 45.398438 -72.015625 40.765625 -67.203125 C 36.140625 -62.398438 33.828125 -55.960938 33.828125 -47.890625 C 33.828125 -39.816406 36.140625 -33.375 40.765625 -28.5625 C 45.398438 -23.757812 51.273438 -21.359375 58.390625 -21.359375 Z M 58.390625 -21.359375 "/></g></g></g><g fill="#4f46e5" fill-opacity="1"><g transform="translate(125.15443, 173.150096)"><g><path d="M 71.03125 -97.203125 C 82.90625 -97.203125 92.488281 -93.640625 99.78125 -86.515625 C 107.082031 -79.398438 110.734375 -68.835938 110.734375 -54.828125 L 110.734375 0 L 82.96875 0 L 82.96875 -50.5625 C 82.96875 -58.15625 81.304688 -63.820312 77.984375 -67.5625 C 74.660156 -71.300781 69.851562 -73.171875 63.5625 -73.171875 C 56.550781 -73.171875 50.96875 -71.003906 46.8125 -66.671875 C 42.664062 -62.335938 40.59375 -55.898438 40.59375 -47.359375 L 40.59375 0 L 12.8125 0 L 12.8125 -95.78125 L 39.34375 -95.78125 L 39.34375 -84.5625 C 43.019531 -88.601562 47.585938 -91.71875 53.046875 -93.90625 C 58.515625 -96.101562 64.507812 -97.203125 71.03125 -97.203125 Z M 71.03125 -97.203125 "/></g></g></g><g fill="#4f46e5" fill-opacity="1"><g transform="translate(257.25341, 173.150096)"><g><path d="M 59.109375 1.421875 C 48.898438 1.421875 39.726562 -0.679688 31.59375 -4.890625 C 23.46875 -9.109375 17.117188 -14.953125 12.546875 -22.421875 C 7.984375 -29.898438 5.703125 -38.390625 5.703125 -47.890625 C 5.703125 -57.390625 7.984375 -65.875 12.546875 -73.34375 C 17.117188 -80.820312 23.46875 -86.664062 31.59375 -90.875 C 39.726562 -95.09375 48.898438 -97.203125 59.109375 -97.203125 C 69.191406 -97.203125 78 -95.09375 85.53125 -90.875 C 93.070312 -86.664062 98.566406 -80.644531 102.015625 -72.8125 L 80.46875 -61.25 C 75.488281 -70.03125 68.304688 -74.421875 58.921875 -74.421875 C 51.679688 -74.421875 45.6875 -72.046875 40.9375 -67.296875 C 36.195312 -62.546875 33.828125 -56.078125 33.828125 -47.890625 C 33.828125 -39.703125 36.195312 -33.234375 40.9375 -28.484375 C 45.6875 -23.734375 51.679688 -21.359375 58.921875 -21.359375 C 68.421875 -21.359375 75.601562 -25.75 80.46875 -34.53125 L 102.015625 -22.78125 C 98.566406 -15.1875 93.070312 -9.253906 85.53125 -4.984375 C 78 -0.710938 69.191406 1.421875 59.109375 1.421875 Z M 59.109375 1.421875 "/></g></g></g><g fill="#4f46e5" fill-opacity="1"><g transform="translate(369.234915, 173.150096)"><g><path d="M 58.390625 1.421875 C 48.304688 1.421875 39.257812 -0.679688 31.25 -4.890625 C 23.238281 -9.109375 16.976562 -14.953125 12.46875 -22.421875 C 7.957031 -29.898438 5.703125 -38.390625 5.703125 -47.890625 C 5.703125 -57.390625 7.957031 -65.875 12.46875 -73.34375 C 16.976562 -80.820312 23.238281 -86.664062 31.25 -90.875 C 39.257812 -95.09375 48.304688 -97.203125 58.390625 -97.203125 C 68.484375 -97.203125 77.503906 -95.09375 85.453125 -90.875 C 93.410156 -86.664062 99.640625 -80.820312 104.140625 -73.34375 C 108.648438 -65.875 110.90625 -57.390625 110.90625 -47.890625 C 110.90625 -38.390625 108.648438 -29.898438 104.140625 -22.421875 C 99.640625 -14.953125 93.410156 -9.109375 85.453125 -4.890625 C 77.503906 -0.679688 68.484375 1.421875 58.390625 1.421875 Z M 58.390625 -21.359375 C 65.515625 -21.359375 71.359375 -23.757812 75.921875 -28.5625 C 80.492188 -33.375 82.78125 -39.816406 82.78125 -47.890625 C 82.78125 -55.960938 80.492188 -62.398438 75.921875 -67.203125 C 71.359375 -72.015625 65.515625 -74.421875 58.390625 -74.421875 C 51.273438 -74.421875 45.398438 -72.015625 40.765625 -67.203125 C 36.140625 -62.398438 33.828125 -55.960938 33.828125 -47.890625 C 33.828125 -39.816406 36.140625 -33.375 40.765625 -28.5625 C 45.398438 -23.757812 51.273438 -21.359375 58.390625 -21.359375 Z M 58.390625 -21.359375 "/></g></g></g><g fill="#4f46e5" fill-opacity="1"><g transform="translate(493.856589, 173.150096)"><g><path d="M 39.34375 -83.140625 C 42.664062 -87.765625 47.144531 -91.265625 52.78125 -93.640625 C 58.425781 -96.015625 64.925781 -97.203125 72.28125 -97.203125 L 72.28125 -71.5625 C 69.195312 -71.800781 67.117188 -71.921875 66.046875 -71.921875 C 58.097656 -71.921875 51.867188 -69.695312 47.359375 -65.25 C 42.847656 -60.800781 40.59375 -54.125 40.59375 -45.21875 L 40.59375 0 L 12.8125 0 L 12.8125 -95.78125 L 39.34375 -95.78125 Z M 39.34375 -83.140625 "/></g></g></g><g fill="#4f46e5" fill-opacity="1"><g transform="translate(576.997158, 173.150096)"><g><path d="M 110.375 -132.09375 L 110.375 0 L 83.859375 0 L 83.859375 -11.03125 C 76.972656 -2.726562 67 1.421875 53.9375 1.421875 C 44.914062 1.421875 36.753906 -0.59375 29.453125 -4.625 C 22.160156 -8.664062 16.4375 -14.421875 12.28125 -21.890625 C 8.125 -29.367188 6.046875 -38.035156 6.046875 -47.890625 C 6.046875 -57.742188 8.125 -66.40625 12.28125 -73.875 C 16.4375 -81.351562 22.160156 -87.109375 29.453125 -91.140625 C 36.753906 -95.179688 44.914062 -97.203125 53.9375 -97.203125 C 66.164062 -97.203125 75.722656 -93.347656 82.609375 -85.640625 L 82.609375 -132.09375 Z M 58.75 -21.359375 C 65.75 -21.359375 71.5625 -23.757812 76.1875 -28.5625 C 80.820312 -33.375 83.140625 -39.816406 83.140625 -47.890625 C 83.140625 -55.960938 80.820312 -62.398438 76.1875 -67.203125 C 71.5625 -72.015625 65.75 -74.421875 58.75 -74.421875 C 51.625 -74.421875 45.75 -72.015625 41.125 -67.203125 C 36.5 -62.398438 34.1875 -55.960938 34.1875 -47.890625 C 34.1875 -39.816406 36.5 -33.375 41.125 -28.5625 C 45.75 -23.757812 51.625 -21.359375 58.75 -21.359375 Z M 58.75 -21.359375 "/></g></g></g><g fill="#4f46e5" fill-opacity="1"><g transform="translate(708.205944, 173.150096)"><g><path d="M 12.8125 -95.78125 L 40.59375 -95.78125 L 40.59375 0 L 12.8125 0 Z M 26.703125 -109.140625 C 21.597656 -109.140625 17.441406 -110.617188 14.234375 -113.578125 C 11.035156 -116.546875 9.4375 -120.226562 9.4375 -124.625 C 9.4375 -129.007812 11.035156 -132.6875 14.234375 -135.65625 C 17.441406 -138.625 21.597656 -140.109375 26.703125 -140.109375 C 31.804688 -140.109375 35.957031 -138.679688 39.15625 -135.828125 C 42.363281 -132.984375 43.96875 -129.425781 43.96875 -125.15625 C 43.96875 -120.53125 42.363281 -116.703125 39.15625 -113.671875 C 35.957031 -110.648438 31.804688 -109.140625 26.703125 -109.140625 Z M 26.703125 -109.140625 "/></g></g></g><g fill="#4f46e5" fill-opacity="1"><g transform="translate(769.804894, 173.150096)"><g><path d="M 51.453125 -97.203125 C 66.285156 -97.203125 77.675781 -93.671875 85.625 -86.609375 C 93.582031 -79.546875 97.5625 -68.894531 97.5625 -54.65625 L 97.5625 0 L 71.5625 0 L 71.5625 -11.921875 C 66.34375 -3.023438 56.613281 1.421875 42.375 1.421875 C 35.007812 1.421875 28.625 0.175781 23.21875 -2.3125 C 17.820312 -4.800781 13.703125 -8.242188 10.859375 -12.640625 C 8.015625 -17.035156 6.59375 -22.019531 6.59375 -27.59375 C 6.59375 -36.5 9.941406 -43.503906 16.640625 -48.609375 C 23.347656 -53.710938 33.707031 -56.265625 47.71875 -56.265625 L 69.78125 -56.265625 C 69.78125 -62.316406 67.941406 -66.972656 64.265625 -70.234375 C 60.585938 -73.492188 55.070312 -75.125 47.71875 -75.125 C 42.613281 -75.125 37.597656 -74.320312 32.671875 -72.71875 C 27.742188 -71.125 23.5625 -68.960938 20.125 -66.234375 L 10.140625 -85.640625 C 15.367188 -89.316406 21.628906 -92.160156 28.921875 -94.171875 C 36.222656 -96.191406 43.734375 -97.203125 51.453125 -97.203125 Z M 49.3125 -17.265625 C 54.0625 -17.265625 58.273438 -18.363281 61.953125 -20.5625 C 65.628906 -22.757812 68.238281 -25.992188 69.78125 -30.265625 L 69.78125 -40.0625 L 50.734375 -40.0625 C 39.335938 -40.0625 33.640625 -36.320312 33.640625 -28.84375 C 33.640625 -25.28125 35.035156 -22.457031 37.828125 -20.375 C 40.617188 -18.300781 44.445312 -17.265625 49.3125 -17.265625 Z M 49.3125 -17.265625 "/></g></g></g></g></g></svg>