<svg xmlns="http://www.w3.org/2000/svg" xmlns:xlink="http://www.w3.org/1999/xlink" width="1920" zoomAndPan="magnify" viewBox="0 0 1440 809.999993" height="1080" preserveAspectRatio="xMidYMid meet" version="1.0"><defs><g/></defs><g fill="#4f46e5" fill-opacity="1"><g transform="translate(17.695318, 498.374995)"><g><path d="M 110.015625 3.15625 C 91.234375 3.15625 74.253906 -0.921875 59.078125 -9.078125 C 43.898438 -17.234375 31.96875 -28.550781 23.28125 -43.03125 C 14.601562 -57.507812 10.265625 -73.867188 10.265625 -92.109375 C 10.265625 -110.359375 14.601562 -126.71875 23.28125 -141.1875 C 31.96875 -155.664062 43.898438 -166.984375 59.078125 -175.140625 C 74.253906 -183.304688 91.320312 -187.390625 110.28125 -187.390625 C 126.238281 -187.390625 140.664062 -184.582031 153.5625 -178.96875 C 166.46875 -173.351562 177.304688 -165.28125 186.078125 -154.75 L 158.703125 -129.484375 C 146.242188 -143.867188 130.800781 -151.0625 112.375 -151.0625 C 100.976562 -151.0625 90.800781 -148.5625 81.84375 -143.5625 C 72.894531 -138.5625 65.921875 -131.585938 60.921875 -122.640625 C 55.921875 -113.691406 53.421875 -103.515625 53.421875 -92.109375 C 53.421875 -80.710938 55.921875 -70.535156 60.921875 -61.578125 C 65.921875 -52.628906 72.894531 -45.65625 81.84375 -40.65625 C 90.800781 -35.65625 100.976562 -33.15625 112.375 -33.15625 C 130.800781 -33.15625 146.242188 -40.4375 158.703125 -55 L 186.078125 -29.734375 C 177.304688 -19.035156 166.425781 -10.878906 153.4375 -5.265625 C 140.457031 0.347656 125.984375 3.15625 110.015625 3.15625 Z M 110.015625 3.15625 "/></g></g></g><g fill="#4f46e5" fill-opacity="1"><g transform="translate(205.607298, 498.374995)"><g><path d="M 86.328125 2.109375 C 71.410156 2.109375 58.03125 -1.003906 46.1875 -7.234375 C 34.34375 -13.460938 25.085938 -22.101562 18.421875 -33.15625 C 11.753906 -44.21875 8.421875 -56.765625 8.421875 -70.796875 C 8.421875 -84.835938 11.753906 -97.382812 18.421875 -108.4375 C 25.085938 -119.488281 34.34375 -128.128906 46.1875 -134.359375 C 58.03125 -140.585938 71.410156 -143.703125 86.328125 -143.703125 C 101.242188 -143.703125 114.578125 -140.585938 126.328125 -134.359375 C 138.085938 -128.128906 147.300781 -119.488281 153.96875 -108.4375 C 160.632812 -97.382812 163.96875 -84.835938 163.96875 -70.796875 C 163.96875 -56.765625 160.632812 -44.21875 153.96875 -33.15625 C 147.300781 -22.101562 138.085938 -13.460938 126.328125 -7.234375 C 114.578125 -1.003906 101.242188 2.109375 86.328125 2.109375 Z M 86.328125 -31.578125 C 96.847656 -31.578125 105.484375 -35.128906 112.234375 -42.234375 C 118.992188 -49.347656 122.375 -58.867188 122.375 -70.796875 C 122.375 -82.722656 118.992188 -92.238281 112.234375 -99.34375 C 105.484375 -106.457031 96.847656 -110.015625 86.328125 -110.015625 C 75.796875 -110.015625 67.109375 -106.457031 60.265625 -99.34375 C 53.421875 -92.238281 50 -82.722656 50 -70.796875 C 50 -58.867188 53.421875 -49.347656 60.265625 -42.234375 C 67.109375 -35.128906 75.796875 -31.578125 86.328125 -31.578125 Z M 86.328125 -31.578125 "/></g></g></g><g fill="#4f46e5" fill-opacity="1"><g transform="translate(377.99152, 498.374995)"><g><path d="M 105.015625 -143.703125 C 122.554688 -143.703125 136.722656 -138.4375 147.515625 -127.90625 C 158.304688 -117.382812 163.703125 -101.769531 163.703125 -81.0625 L 163.703125 0 L 122.640625 0 L 122.640625 -74.75 C 122.640625 -85.976562 120.179688 -94.351562 115.265625 -99.875 C 110.359375 -105.40625 103.253906 -108.171875 93.953125 -108.171875 C 83.609375 -108.171875 75.363281 -104.96875 69.21875 -98.5625 C 63.070312 -92.15625 60 -82.640625 60 -70.015625 L 60 0 L 18.953125 0 L 18.953125 -141.59375 L 58.171875 -141.59375 L 58.171875 -125.015625 C 63.609375 -130.984375 70.359375 -135.585938 78.421875 -138.828125 C 86.492188 -142.078125 95.359375 -143.703125 105.015625 -143.703125 Z M 105.015625 -143.703125 "/></g></g></g><g fill="#4f46e5" fill-opacity="1"><g transform="translate(561.42936, 498.374995)"><g><path d="M 87.375 2.109375 C 72.289062 2.109375 58.738281 -1.003906 46.71875 -7.234375 C 34.695312 -13.460938 25.304688 -22.101562 18.546875 -33.15625 C 11.796875 -44.21875 8.421875 -56.765625 8.421875 -70.796875 C 8.421875 -84.835938 11.796875 -97.382812 18.546875 -108.4375 C 25.304688 -119.488281 34.695312 -128.128906 46.71875 -134.359375 C 58.738281 -140.585938 72.289062 -143.703125 87.375 -143.703125 C 102.289062 -143.703125 115.316406 -140.585938 126.453125 -134.359375 C 137.597656 -128.128906 145.71875 -119.222656 150.8125 -107.640625 L 118.953125 -90.53125 C 111.585938 -103.519531 100.972656 -110.015625 87.109375 -110.015625 C 76.410156 -110.015625 67.550781 -106.503906 60.53125 -99.484375 C 53.507812 -92.460938 50 -82.898438 50 -70.796875 C 50 -58.691406 53.507812 -49.128906 60.53125 -42.109375 C 67.550781 -35.085938 76.410156 -31.578125 87.109375 -31.578125 C 101.148438 -31.578125 111.765625 -38.070312 118.953125 -51.0625 L 150.8125 -33.6875 C 145.71875 -22.457031 137.597656 -13.679688 126.453125 -7.359375 C 115.316406 -1.046875 102.289062 2.109375 87.375 2.109375 Z M 87.375 2.109375 "/></g></g></g><g fill="#4f46e5" fill-opacity="1"><g transform="translate(715.12767, 498.374995)"><g><path d="M 86.328125 2.109375 C 71.410156 2.109375 58.03125 -1.003906 46.1875 -7.234375 C 34.34375 -13.460938 25.085938 -22.101562 18.421875 -33.15625 C 11.753906 -44.21875 8.421875 -56.765625 8.421875 -70.796875 C 8.421875 -84.835938 11.753906 -97.382812 18.421875 -108.4375 C 25.085938 -119.488281 34.34375 -128.128906 46.1875 -134.359375 C 58.03125 -140.585938 71.410156 -143.703125 86.328125 -143.703125 C 101.242188 -143.703125 114.578125 -140.585938 126.328125 -134.359375 C 138.085938 -128.128906 147.300781 -119.488281 153.96875 -108.4375 C 160.632812 -97.382812 163.96875 -84.835938 163.96875 -70.796875 C 163.96875 -56.765625 160.632812 -44.21875 153.96875 -33.15625 C 147.300781 -22.101562 138.085938 -13.460938 126.328125 -7.234375 C 114.578125 -1.003906 101.242188 2.109375 86.328125 2.109375 Z M 86.328125 -31.578125 C 96.847656 -31.578125 105.484375 -35.128906 112.234375 -42.234375 C 118.992188 -49.347656 122.375 -58.867188 122.375 -70.796875 C 122.375 -82.722656 118.992188 -92.238281 112.234375 -99.34375 C 105.484375 -106.457031 96.847656 -110.015625 86.328125 -110.015625 C 75.796875 -110.015625 67.109375 -106.457031 60.265625 -99.34375 C 53.421875 -92.238281 50 -82.722656 50 -70.796875 C 50 -58.867188 53.421875 -49.347656 60.265625 -42.234375 C 67.109375 -35.128906 75.796875 -31.578125 86.328125 -31.578125 Z M 86.328125 -31.578125 "/></g></g></g><g fill="#4f46e5" fill-opacity="1"><g transform="translate(887.511892, 498.374995)"><g><path d="M 58.171875 -122.90625 C 63.078125 -129.75 69.695312 -134.925781 78.03125 -138.4375 C 86.363281 -141.945312 95.972656 -143.703125 106.859375 -143.703125 L 106.859375 -105.796875 C 102.296875 -106.148438 99.222656 -106.328125 97.640625 -106.328125 C 85.890625 -106.328125 76.675781 -103.035156 70 -96.453125 C 63.332031 -89.878906 60 -80.007812 60 -66.84375 L 60 0 L 18.953125 0 L 18.953125 -141.59375 L 58.171875 -141.59375 Z M 58.171875 -122.90625 "/></g></g></g><g fill="#4f46e5" fill-opacity="1"><g transform="translate(998.574691, 498.374995)"><g><path d="M 163.171875 -195.28125 L 163.171875 0 L 123.96875 0 L 123.96875 -16.3125 C 113.789062 -4.03125 99.050781 2.109375 79.75 2.109375 C 66.414062 2.109375 54.351562 -0.875 43.5625 -6.84375 C 32.769531 -12.8125 24.300781 -21.320312 18.15625 -32.375 C 12.019531 -43.425781 8.953125 -56.234375 8.953125 -70.796875 C 8.953125 -85.359375 12.019531 -98.164062 18.15625 -109.21875 C 24.300781 -120.269531 32.769531 -128.78125 43.5625 -134.75 C 54.351562 -140.71875 66.414062 -143.703125 79.75 -143.703125 C 97.820312 -143.703125 111.945312 -138 122.125 -126.59375 L 122.125 -195.28125 Z M 86.859375 -31.578125 C 97.203125 -31.578125 105.796875 -35.128906 112.640625 -42.234375 C 119.484375 -49.347656 122.90625 -58.867188 122.90625 -70.796875 C 122.90625 -82.722656 119.484375 -92.238281 112.640625 -99.34375 C 105.796875 -106.457031 97.203125 -110.015625 86.859375 -110.015625 C 76.328125 -110.015625 67.640625 -106.457031 60.796875 -99.34375 C 53.953125 -92.238281 50.53125 -82.722656 50.53125 -70.796875 C 50.53125 -58.867188 53.953125 -49.347656 60.796875 -42.234375 C 67.640625 -35.128906 76.328125 -31.578125 86.859375 -31.578125 Z M 86.859375 -31.578125 "/></g></g></g><g fill="#4f46e5" fill-opacity="1"><g transform="translate(1180.696597, 498.374995)"><g><path d="M 18.953125 -141.59375 L 60 -141.59375 L 60 0 L 18.953125 0 Z M 39.484375 -161.328125 C 31.941406 -161.328125 25.800781 -163.519531 21.0625 -167.90625 C 16.320312 -172.300781 13.953125 -177.742188 13.953125 -184.234375 C 13.953125 -190.722656 16.320312 -196.160156 21.0625 -200.546875 C 25.800781 -204.929688 31.941406 -207.125 39.484375 -207.125 C 47.023438 -207.125 53.164062 -205.019531 57.90625 -200.8125 C 62.644531 -196.601562 65.015625 -191.335938 65.015625 -185.015625 C 65.015625 -178.171875 62.644531 -172.507812 57.90625 -168.03125 C 53.164062 -163.5625 47.023438 -161.328125 39.484375 -161.328125 Z M 39.484375 -161.328125 "/></g></g></g><g fill="#4f46e5" fill-opacity="1"><g transform="translate(1259.914427, 498.374995)"><g><path d="M 76.0625 -143.703125 C 97.988281 -143.703125 114.832031 -138.476562 126.59375 -128.03125 C 138.351562 -117.59375 144.234375 -101.847656 144.234375 -80.796875 L 144.234375 0 L 105.796875 0 L 105.796875 -17.640625 C 98.078125 -4.472656 83.691406 2.109375 62.640625 2.109375 C 51.765625 2.109375 42.332031 0.265625 34.34375 -3.421875 C 26.363281 -7.109375 20.265625 -12.195312 16.046875 -18.6875 C 11.835938 -25.175781 9.734375 -32.546875 9.734375 -40.796875 C 9.734375 -53.953125 14.691406 -64.300781 24.609375 -71.84375 C 34.523438 -79.394531 49.832031 -83.171875 70.53125 -83.171875 L 103.171875 -83.171875 C 103.171875 -92.117188 100.453125 -99.003906 95.015625 -103.828125 C 89.578125 -108.648438 81.414062 -111.0625 70.53125 -111.0625 C 62.988281 -111.0625 55.578125 -109.875 48.296875 -107.5 C 41.015625 -105.132812 34.828125 -101.9375 29.734375 -97.90625 L 15 -126.59375 C 22.71875 -132.03125 31.972656 -136.238281 42.765625 -139.21875 C 53.554688 -142.207031 64.65625 -143.703125 76.0625 -143.703125 Z M 72.90625 -25.53125 C 79.925781 -25.53125 86.15625 -27.148438 91.59375 -30.390625 C 97.03125 -33.640625 100.890625 -38.421875 103.171875 -44.734375 L 103.171875 -59.21875 L 75.015625 -59.21875 C 58.171875 -59.21875 49.75 -53.691406 49.75 -42.640625 C 49.75 -37.367188 51.804688 -33.195312 55.921875 -30.125 C 60.046875 -27.0625 65.707031 -25.53125 72.90625 -25.53125 Z M 72.90625 -25.53125 "/></g></g></g></svg>