<svg xmlns="http://www.w3.org/2000/svg" xmlns:xlink="http://www.w3.org/1999/xlink" width="1920" zoomAndPan="magnify" viewBox="0 0 1440 809.999993" height="1080" preserveAspectRatio="xMidYMid meet" version="1.0"><defs><g/><clipPath id="80f7132ffd"><rect x="0" width="504" y="0" height="810"/></clipPath><clipPath id="120c740825"><rect x="0" width="913" y="0" height="225"/></clipPath></defs><g transform="matrix(1, 0, 0, 1, 41, 0.000000000000039746)"><g clip-path="url(#80f7132ffd)"><g fill="#4f46e5" fill-opacity="1"><g transform="translate(1.056082, 646.630577)"><g><path d="M 282.9375 10.796875 C 232.96875 10.796875 187.945312 0.332031 147.875 -20.59375 C 107.8125 -41.53125 76.410156 -70.789062 53.671875 -108.375 C 30.941406 -145.96875 19.578125 -188.625 19.578125 -236.34375 C 19.578125 -284.0625 30.941406 -326.710938 53.671875 -364.296875 C 76.410156 -401.890625 107.8125 -431.148438 147.875 -452.078125 C 187.945312 -473.015625 232.96875 -483.484375 282.9375 -483.484375 C 328.851562 -483.484375 369.816406 -475.378906 405.828125 -459.171875 C 441.847656 -442.972656 471.5625 -419.566406 494.96875 -388.953125 L 394.359375 -299.140625 C 365.097656 -336.054688 330.660156 -354.515625 291.046875 -354.515625 C 257.722656 -354.515625 230.929688 -343.820312 210.671875 -322.4375 C 190.421875 -301.050781 180.296875 -272.351562 180.296875 -236.34375 C 180.296875 -200.332031 190.421875 -171.632812 210.671875 -150.25 C 230.929688 -128.863281 257.722656 -118.171875 291.046875 -118.171875 C 330.660156 -118.171875 365.097656 -136.628906 394.359375 -173.546875 L 494.96875 -83.734375 C 471.5625 -53.117188 441.847656 -29.707031 405.828125 -13.5 C 369.816406 2.695312 328.851562 10.796875 282.9375 10.796875 Z M 282.9375 10.796875 "/></g></g></g></g></g><g transform="matrix(1, 0, 0, 1, 461, 282)"><g clip-path="url(#120c740825)"><g fill="#4f46e5" fill-opacity="1"><g transform="translate(0.986975, 178.308188)"><g><path d="M 59.9375 1.46875 C 49.582031 1.46875 40.289062 -0.691406 32.0625 -5.015625 C 23.84375 -9.347656 17.414062 -15.351562 12.78125 -23.03125 C 8.15625 -30.707031 5.84375 -39.414062 5.84375 -49.15625 C 5.84375 -58.90625 8.15625 -67.617188 12.78125 -75.296875 C 17.414062 -82.972656 23.84375 -88.972656 32.0625 -93.296875 C 40.289062 -97.617188 49.582031 -99.78125 59.9375 -99.78125 C 70.289062 -99.78125 79.550781 -97.617188 87.71875 -93.296875 C 95.882812 -88.972656 102.28125 -82.972656 106.90625 -75.296875 C 111.539062 -67.617188 113.859375 -58.90625 113.859375 -49.15625 C 113.859375 -39.414062 111.539062 -30.707031 106.90625 -23.03125 C 102.28125 -15.351562 95.882812 -9.347656 87.71875 -5.015625 C 79.550781 -0.691406 70.289062 1.46875 59.9375 1.46875 Z M 59.9375 -21.9375 C 67.25 -21.9375 73.25 -24.398438 77.9375 -29.328125 C 82.632812 -34.265625 84.984375 -40.875 84.984375 -49.15625 C 84.984375 -57.445312 82.632812 -64.054688 77.9375 -68.984375 C 73.25 -73.921875 67.25 -76.390625 59.9375 -76.390625 C 52.632812 -76.390625 46.601562 -73.921875 41.84375 -68.984375 C 37.09375 -64.054688 34.71875 -57.445312 34.71875 -49.15625 C 34.71875 -40.875 37.09375 -34.265625 41.84375 -29.328125 C 46.601562 -24.398438 52.632812 -21.9375 59.9375 -21.9375 Z M 59.9375 -21.9375 "/></g></g></g><g fill="#4f46e5" fill-opacity="1"><g transform="translate(128.912283, 178.308188)"><g><path d="M 72.921875 -99.78125 C 85.097656 -99.78125 94.929688 -96.125 102.421875 -88.8125 C 109.921875 -81.5 113.671875 -70.65625 113.671875 -56.28125 L 113.671875 0 L 85.15625 0 L 85.15625 -51.90625 C 85.15625 -59.695312 83.445312 -65.507812 80.03125 -69.34375 C 76.625 -73.1875 71.691406 -75.109375 65.234375 -75.109375 C 58.046875 -75.109375 52.320312 -72.882812 48.0625 -68.4375 C 43.800781 -63.988281 41.671875 -57.378906 41.671875 -48.609375 L 41.671875 0 L 13.15625 0 L 13.15625 -98.3125 L 40.390625 -98.3125 L 40.390625 -86.8125 C 44.160156 -90.945312 48.847656 -94.140625 54.453125 -96.390625 C 60.054688 -98.648438 66.210938 -99.78125 72.921875 -99.78125 Z M 72.921875 -99.78125 "/></g></g></g><g fill="#4f46e5" fill-opacity="1"><g transform="translate(264.513114, 178.308188)"><g><path d="M 60.671875 1.46875 C 50.191406 1.46875 40.78125 -0.691406 32.4375 -5.015625 C 24.09375 -9.347656 17.570312 -15.351562 12.875 -23.03125 C 8.1875 -30.707031 5.84375 -39.414062 5.84375 -49.15625 C 5.84375 -58.90625 8.1875 -67.617188 12.875 -75.296875 C 17.570312 -82.972656 24.09375 -88.972656 32.4375 -93.296875 C 40.78125 -97.617188 50.191406 -99.78125 60.671875 -99.78125 C 71.023438 -99.78125 80.070312 -97.617188 87.8125 -93.296875 C 95.550781 -88.972656 101.1875 -82.789062 104.71875 -74.75 L 82.609375 -62.859375 C 77.484375 -71.878906 70.109375 -76.390625 60.484375 -76.390625 C 53.054688 -76.390625 46.90625 -73.953125 42.03125 -69.078125 C 37.15625 -64.203125 34.71875 -57.5625 34.71875 -49.15625 C 34.71875 -40.75 37.15625 -34.109375 42.03125 -29.234375 C 46.90625 -24.367188 53.054688 -21.9375 60.484375 -21.9375 C 70.234375 -21.9375 77.609375 -26.441406 82.609375 -35.453125 L 104.71875 -23.390625 C 101.1875 -15.597656 95.550781 -9.503906 87.8125 -5.109375 C 80.070312 -0.722656 71.023438 1.46875 60.671875 1.46875 Z M 60.671875 1.46875 "/></g></g></g><g fill="#4f46e5" fill-opacity="1"><g transform="translate(379.46317, 178.308188)"><g><path d="M 59.9375 1.46875 C 49.582031 1.46875 40.289062 -0.691406 32.0625 -5.015625 C 23.84375 -9.347656 17.414062 -15.351562 12.78125 -23.03125 C 8.15625 -30.707031 5.84375 -39.414062 5.84375 -49.15625 C 5.84375 -58.90625 8.15625 -67.617188 12.78125 -75.296875 C 17.414062 -82.972656 23.84375 -88.972656 32.0625 -93.296875 C 40.289062 -97.617188 49.582031 -99.78125 59.9375 -99.78125 C 70.289062 -99.78125 79.550781 -97.617188 87.71875 -93.296875 C 95.882812 -88.972656 102.28125 -82.972656 106.90625 -75.296875 C 111.539062 -67.617188 113.859375 -58.90625 113.859375 -49.15625 C 113.859375 -39.414062 111.539062 -30.707031 106.90625 -23.03125 C 102.28125 -15.351562 95.882812 -9.347656 87.71875 -5.015625 C 79.550781 -0.691406 70.289062 1.46875 59.9375 1.46875 Z M 59.9375 -21.9375 C 67.25 -21.9375 73.25 -24.398438 77.9375 -29.328125 C 82.632812 -34.265625 84.984375 -40.875 84.984375 -49.15625 C 84.984375 -57.445312 82.632812 -64.054688 77.9375 -68.984375 C 73.25 -73.921875 67.25 -76.390625 59.9375 -76.390625 C 52.632812 -76.390625 46.601562 -73.921875 41.84375 -68.984375 C 37.09375 -64.054688 34.71875 -57.445312 34.71875 -49.15625 C 34.71875 -40.875 37.09375 -34.265625 41.84375 -29.328125 C 46.601562 -24.398438 52.632812 -21.9375 59.9375 -21.9375 Z M 59.9375 -21.9375 "/></g></g></g><g fill="#4f46e5" fill-opacity="1"><g transform="translate(507.388478, 178.308188)"><g><path d="M 40.390625 -85.34375 C 43.796875 -90.09375 48.390625 -93.6875 54.171875 -96.125 C 59.960938 -98.5625 66.640625 -99.78125 74.203125 -99.78125 L 74.203125 -73.46875 C 71.023438 -73.707031 68.890625 -73.828125 67.796875 -73.828125 C 59.640625 -73.828125 53.242188 -71.539062 48.609375 -66.96875 C 43.984375 -62.40625 41.671875 -55.554688 41.671875 -46.421875 L 41.671875 0 L 13.15625 0 L 13.15625 -98.3125 L 40.390625 -98.3125 Z M 40.390625 -85.34375 "/></g></g></g><g fill="#4f46e5" fill-opacity="1"><g transform="translate(592.733045, 178.308188)"><g><path d="M 113.3125 -135.59375 L 113.3125 0 L 86.078125 0 L 86.078125 -11.328125 C 79.003906 -2.796875 68.769531 1.46875 55.375 1.46875 C 46.113281 1.46875 37.734375 -0.601562 30.234375 -4.75 C 22.742188 -8.894531 16.867188 -14.800781 12.609375 -22.46875 C 8.347656 -30.144531 6.21875 -39.039062 6.21875 -49.15625 C 6.21875 -59.269531 8.347656 -68.164062 12.609375 -75.84375 C 16.867188 -83.519531 22.742188 -89.425781 30.234375 -93.5625 C 37.734375 -97.707031 46.113281 -99.78125 55.375 -99.78125 C 67.925781 -99.78125 77.734375 -95.820312 84.796875 -87.90625 L 84.796875 -135.59375 Z M 60.3125 -21.9375 C 67.5 -21.9375 73.46875 -24.398438 78.21875 -29.328125 C 82.96875 -34.265625 85.34375 -40.875 85.34375 -49.15625 C 85.34375 -57.445312 82.96875 -64.054688 78.21875 -68.984375 C 73.46875 -73.921875 67.5 -76.390625 60.3125 -76.390625 C 53 -76.390625 46.96875 -73.921875 42.21875 -68.984375 C 37.46875 -64.054688 35.09375 -57.445312 35.09375 -49.15625 C 35.09375 -40.875 37.46875 -34.265625 42.21875 -29.328125 C 46.96875 -24.398438 53 -21.9375 60.3125 -21.9375 Z M 60.3125 -21.9375 "/></g></g></g><g fill="#4f46e5" fill-opacity="1"><g transform="translate(727.420085, 178.308188)"><g><path d="M 13.15625 -98.3125 L 41.671875 -98.3125 L 41.671875 0 L 13.15625 0 Z M 27.40625 -112.03125 C 22.164062 -112.03125 17.898438 -113.550781 14.609375 -116.59375 C 11.328125 -119.632812 9.6875 -123.410156 9.6875 -127.921875 C 9.6875 -132.429688 11.328125 -136.207031 14.609375 -139.25 C 17.898438 -142.300781 22.164062 -143.828125 27.40625 -143.828125 C 32.644531 -143.828125 36.910156 -142.363281 40.203125 -139.4375 C 43.492188 -136.507812 45.140625 -132.851562 45.140625 -128.46875 C 45.140625 -123.71875 43.492188 -119.789062 40.203125 -116.6875 C 36.910156 -113.582031 32.644531 -112.03125 27.40625 -112.03125 Z M 27.40625 -112.03125 "/></g></g></g><g fill="#4f46e5" fill-opacity="1"><g transform="translate(790.651979, 178.308188)"><g><path d="M 52.8125 -99.78125 C 68.039062 -99.78125 79.734375 -96.15625 87.890625 -88.90625 C 96.054688 -81.65625 100.140625 -70.722656 100.140625 -56.109375 L 100.140625 0 L 73.46875 0 L 73.46875 -12.25 C 68.101562 -3.101562 58.113281 1.46875 43.5 1.46875 C 35.9375 1.46875 29.382812 0.1875 23.84375 -2.375 C 18.300781 -4.9375 14.066406 -8.46875 11.140625 -12.96875 C 8.222656 -17.476562 6.765625 -22.597656 6.765625 -28.328125 C 6.765625 -37.460938 10.203125 -44.648438 17.078125 -49.890625 C 23.960938 -55.128906 34.597656 -57.75 48.984375 -57.75 L 71.640625 -57.75 C 71.640625 -63.957031 69.75 -68.738281 65.96875 -72.09375 C 62.195312 -75.445312 56.535156 -77.125 48.984375 -77.125 C 43.742188 -77.125 38.59375 -76.300781 33.53125 -74.65625 C 28.476562 -73.007812 24.1875 -70.785156 20.65625 -67.984375 L 10.421875 -87.90625 C 15.773438 -91.675781 22.195312 -94.597656 29.6875 -96.671875 C 37.1875 -98.742188 44.894531 -99.78125 52.8125 -99.78125 Z M 50.625 -17.734375 C 55.5 -17.734375 59.820312 -18.859375 63.59375 -21.109375 C 67.375 -23.359375 70.054688 -26.675781 71.640625 -31.0625 L 71.640625 -41.125 L 52.078125 -41.125 C 40.390625 -41.125 34.546875 -37.285156 34.546875 -29.609375 C 34.546875 -25.953125 35.972656 -23.054688 38.828125 -20.921875 C 41.691406 -18.796875 45.625 -17.734375 50.625 -17.734375 Z M 50.625 -17.734375 "/></g></g></g></g></g></svg>