<svg xmlns="http://www.w3.org/2000/svg" viewBox="30 200 1020 1060">
  <g fill="#ed4245">
    <g transform="translate(-9.008738, 1233.95552)">
      <path d="M 602.609375 23.015625 C 496.191406 23.015625 400.3125 0.722656 314.96875 -43.859375 C 229.632812 -88.453125 162.753906 -150.78125 114.328125 -230.84375 C 65.910156 -310.90625 41.703125 -401.753906 41.703125 -503.390625 C 41.703125 -605.015625 65.910156 -695.859375 114.328125 -775.921875 C 162.753906 -855.984375 229.632812 -918.304688 314.96875 -962.890625 C 400.3125 -1007.472656 496.191406 -1029.765625 602.609375 -1029.765625 C 700.410156 -1029.765625 787.664062 -1012.503906 864.375 -977.984375 C 941.082031 -943.472656 1004.363281 -893.617188 1054.21875 -828.421875 L 839.921875 -637.125 C 777.597656 -715.75 704.25 -755.0625 619.875 -755.0625 C 548.914062 -755.0625 491.863281 -732.289062 448.71875 -686.75 C 405.582031 -641.207031 384.015625 -580.085938 384.015625 -503.390625 C 384.015625 -426.679688 405.582031 -365.550781 448.71875 -320 C 491.863281 -274.457031 548.914062 -251.6875 619.875 -251.6875 C 704.25 -251.6875 777.597656 -291 839.921875 -369.625 L 1054.21875 -178.34375 C 1004.363281 -113.144531 941.082031 -63.285156 864.375 -28.765625 C 787.664062 5.753906 700.410156 23.015625 602.609375 23.015625 Z"/>
    </g>
  </g>
</svg>
